<svg width="120" height="120" viewBox="0 0 120 120" xmlns="http://www.w3.org/2000/svg">
    <g fill="none" fill-rule="evenodd">
        <path d="M21.51 105.061S-.951 98.383 3.173 76.621c5.002-26.4 27.683-23.064 33.06-41.452 6.415-21.931 19.217-24.993 35.046-21.021 21.776 5.464 12.398 23.744 20.423 34.15 9.264 12.013 25.428 8.289 25.428 29.14 0 23.275-25.917 26.832-51.3 26.832-22.631 0-44.318.791-44.318.791" fill="#EDF6FC"/>
        <path d="M31.965 54.813s-6.85 9.488-15.191 2.169l-4.85 3.614s6.216 9.439 17.362 5.742c0 0 3.305-4.928 3.305-4.536 0 .224-.626-6.99-.626-6.99" fill="#005CFF"/>
        <path d="M34.517 50.73c-.781 0-1.562.431-1.782 1.294l-8.38 32.918c-.268 1.05.604 2.055 1.782 2.055h36.577V50.73H34.517z" fill="#BBF5FF"/>
        <path d="M95.074 87.39c-.936 0-1.695-.76-1.695-1.695V56.893c0-.936.759-1.695 1.695-1.695h13.925c.936 0 1.695.759 1.695 1.695v28.802c0 .935-.759 1.694-1.695 1.694H95.074z" fill="#27B7FF"/>
        <path d="M107.928 86.253H94.002c-.936 0-1.694-.759-1.694-1.694V55.757c0-.936.758-1.695 1.694-1.695h13.926c.936 0 1.695.759 1.695 1.695v28.802c0 .935-.76 1.694-1.695 1.694" fill="#BBF5FF"/>
        <path d="M107.14 76.346c0 3.417-2.611 6.187-5.832 6.187-3.22 0-5.83-2.77-5.83-6.187 0-3.418 2.61-6.188 5.83-6.188s5.831 2.77 5.831 6.188" fill="#80DAFC"/>
        <path d="M101.184 81.237c-1.95 0-3.53-2.158-3.53-4.82 0-2.661 1.58-4.819 3.53-4.819 1.95 0 3.532 2.158 3.532 4.82 0 2.661-1.581 4.819-3.532 4.819z" fill="#FF7800"/>
        <path fill="#FF7800" d="M95.058 81.237h6.127v-9.64h-6.127z"/>
        <path d="M95.232 81.237c-1.95 0-3.531-2.158-3.531-4.82 0-2.661 1.58-4.819 3.531-4.819 1.95 0 3.531 2.158 3.531 4.82 0 2.661-1.58 4.819-3.53 4.819z" fill="#FFA900"/>
        <path d="M96.962 76.417c0 1.389-.825 2.515-1.843 2.515-1.017 0-1.842-1.126-1.842-2.515 0-1.388.825-2.514 1.842-2.514 1.018 0 1.843 1.126 1.843 2.514" fill="#FF7800"/>
        <path fill="#FF7800" d="M91.211 78.931h3.908v-5.028h-3.908z"/>
        <path d="M93.054 76.417c0 1.389-.825 2.515-1.843 2.515-1.017 0-1.842-1.126-1.842-2.515 0-1.388.825-2.514 1.842-2.514 1.018 0 1.843 1.126 1.843 2.514" fill="#FFA900"/>
        <path d="M107.14 62.443c0 3.417-2.611 6.187-5.832 6.187-3.22 0-5.83-2.77-5.83-6.187 0-3.417 2.61-6.188 5.83-6.188s5.831 2.77 5.831 6.188" fill="#80DAFC"/>
        <path d="M86.568 75.707a6.607 6.607 0 0 1 4.032-.927l.15.016c.045.005.083.011.115.016a1.568 1.568 0 0 1-.431 3.106l-.103-.013-.02-.002a3.474 3.474 0 0 0-.827.032c-.454.07-.895.218-1.305.464-.502.3-.944.737-1.318 1.35l-.185.31c-.063.108-.129.223-.2.351l-.41.74c-1.09 1.987-1.723 2.914-2.836 3.842-1.493 1.246-3.401 1.86-5.89 1.822-3.16-.049-5.7-1.374-7.625-3.518a12.537 12.537 0 0 1-1.665-2.356 9.22 9.22 0 0 1-.541-1.143 1.568 1.568 0 0 1 2.905-1.179l.07.174a9.427 9.427 0 0 0 1.565 2.409c1.376 1.532 3.12 2.443 5.34 2.476 3.066.047 4.123-.788 5.834-3.866l.444-.806c.194-.348.35-.617.516-.89.64-1.049 1.45-1.848 2.385-2.408z" fill="#0A1B64"/>
        <path d="M99.296 60.242c.407 0 .742.311.78.709l.004.075v2.833a.784.784 0 0 1-1.565.076l-.003-.076v-2.833c0-.433.35-.784.784-.784zM103.52 60.242c.408 0 .743.311.78.709l.004.075v2.833a.784.784 0 0 1-1.564.076l-.004-.076v-2.833c0-.433.351-.784.784-.784z" fill="#0B7EFF"/>
        <path d="m60.931 52.024-8.38 32.918c-.267 1.05.604 2.055 1.782 2.055h16.76c1.18 0 2.05-1.004 1.783-2.055l-8.38-32.918c-.44-1.726-3.125-1.726-3.565 0" fill="#80DAFC"/>
        <path d="M47.42 54.04h-.817a3.34 3.34 0 0 1-3.34-3.338v-5.69h7.495v5.69a3.34 3.34 0 0 1-3.339 3.339" fill="#005CFF"/>
        <path d="m48.938 80.27 5.88-23.095a1.62 1.62 0 0 0-1.569-2.02H37.924c-.74 0-1.386.503-1.568 1.221l-5.88 23.095a1.62 1.62 0 0 0 1.57 2.018H47.37c.74 0 1.386-.502 1.568-1.22" fill="#0A1B64"/>
        <path d="m34.003 73.866-.87 3.42a.996.996 0 0 0 .964 1.241H46.51a.995.995 0 0 0 .964-.75l.87-3.42a.995.995 0 0 0-.964-1.24H34.968a.996.996 0 0 0-.965.75M49.358 65.224H36.946a.996.996 0 0 0-.965.75l-.87 3.42a.995.995 0 0 0 .965 1.24h12.411a.995.995 0 0 0 .965-.75l.87-3.42a.995.995 0 0 0-.964-1.24m0 .392a.6.6 0 0 1 .476.233.6.6 0 0 1 .109.52l-.871 3.419a.603.603 0 0 1-.585.454H36.076a.598.598 0 0 1-.477-.233.6.6 0 0 1-.108-.519l.87-3.42a.603.603 0 0 1 .585-.454h12.412M51.366 57.332H38.954a.996.996 0 0 0-.965.75l-.87 3.42a.995.995 0 0 0 .965 1.24h12.411a.995.995 0 0 0 .965-.75l.87-3.42a.995.995 0 0 0-.964-1.24m0 .392a.6.6 0 0 1 .476.233.599.599 0 0 1 .108.52l-.87 3.419a.603.603 0 0 1-.585.454H38.084a.6.6 0 0 1-.477-.233.6.6 0 0 1-.108-.52l.87-3.419a.603.603 0 0 1 .585-.454h12.412" fill="#FF7800"/>
        <path d="M38.707 87.04h-11.1c-1.543 0-3.085.683-3.966 2.051l-7.696 11.948c-1.623 2.52.406 5.67 3.653 5.67h19.109V87.04z" fill="#005CFF"/>
        <path d="M34.866 89.091 27.17 101.04c-1.624 2.52.406 5.67 3.652 5.67h16.019c3.247 0 5.276-3.15 3.653-5.67l-7.696-11.948c-1.763-2.736-6.17-2.736-7.932 0" fill="#002199"/>
        <path fill="#06A0FF" d="M48.546 94.085h16.22l1.533-7.088H46.297z"/>
        <path d="M48.546 94.085H37.043c-1.008 0-1.9-.652-2.205-1.614L33.1 86.997h13.196l2.249 7.088z" fill="#80DAFC"/>
        <path d="M65.622 59.042c2.07.752 6.982 3.401 10.475-3.44l5.08 3.176c-1.456 4.594-8.573 11.07-17.573 8.43 0 0-4.609-1.453-3.706-5.502.718-3.22 3.524-3.463 5.724-2.664" fill="#005CFF"/>
        <path d="m11.326 51.882 3.64-3.569.156.165a13.284 13.284 0 0 1 1.33 1.747c1.174 1.841 1.801 3.784 1.474 5.807-.228 1.416-.928 2.703-2.078 3.771l-.199.178c-3.248 2.826-6.848 2.275-9.905-.113a12.563 12.563 0 0 1-1.366-1.241l-.175-.189a9.414 9.414 0 0 1-.278-.317l-.1-.124 4.006-3.151.034.04a7.51 7.51 0 0 0 1.017.965c1.308 1.022 2.298 1.198 3.326.365l.113-.096c.368-.324.525-.602.573-.9.09-.55-.174-1.368-.74-2.255-.192-.301-.4-.582-.606-.83l-.187-.216-.035-.037zM75.699 46.914l4.283 2.763c-.67 1.038-1.117 1.952-1.269 2.852-.161.958.065 1.464 1.134 1.992 1.082.534 1.686.388 2.42-.383.618-.65 1.091-1.523 1.486-2.528l.083-.217 4.773 1.787c-.235.63-.473 1.188-.81 1.836-.511.981-1.113 1.872-1.84 2.636-2.192 2.302-5.16 3.023-8.369 1.44-3.188-1.575-4.422-4.33-3.903-7.41.173-1.026.525-2.026 1.008-3.014.278-.568.54-1.022.862-1.532l.142-.222z" fill="#0A1B64"/>
        <path d="M70.184 39.147a3.1 3.1 0 1 1 6.128.934 3.1 3.1 0 0 1-6.128-.934" fill="#003CE5"/>
        <path d="m63.346 37.41 9.2 1.403a.686.686 0 0 1-.138 1.363l-.07-.007-9.2-1.402a.686.686 0 0 1 .138-1.363l.07.007z" fill="#06A0FF"/>
        <path d="M62.774 49.379 38.79 45.724l3.246-21.306 23.984 3.655a2.573 2.573 0 0 1 2.156 2.93l-2.472 16.22a2.573 2.573 0 0 1-2.93 2.156" fill="#80DAFC"/>
        <path d="m38.79 45.724-10.026-1.527a2.065 2.065 0 0 1-1.73-2.353l2.623-17.223a2.065 2.065 0 0 1 2.353-1.73l10.026 1.527-3.247 21.306z" fill="#BBF5FF"/>
        <path d="M48.804 33.443a1.958 1.958 0 1 1-3.87-.59 1.958 1.958 0 0 1 3.87.59M63.285 35.65a1.957 1.957 0 1 1-3.87-.59 1.957 1.957 0 0 1 3.87.59" fill="#FD5C00"/>
        <path d="M50.277 38.872a.588.588 0 0 1 .764.078l.043.052 1.998 2.668 2.793-1.945a.588.588 0 0 1 .78.096l.04.05 2.15 3.095a.588.588 0 0 1-.924.725l-.042-.054-1.815-2.61-2.775 1.934a.588.588 0 0 1-.764-.08l-.043-.05-2-2.67-2.791 1.946a.588.588 0 0 1-.777-.092l-.042-.054a.588.588 0 0 1 .092-.776l.054-.043 3.259-2.27z" fill="#005CFF"/>
        <path d="m25.85 31.698 8.102 1.234a.686.686 0 0 1-.136 1.364l-.07-.007-8.103-1.235a.686.686 0 0 1 .137-1.363l.07.007z" fill="#06A0FF"/>
        <path d="M26.907 32.552a3.099 3.099 0 1 1-6.127-.933 3.099 3.099 0 0 1 6.127.933" fill="#003CE5"/>
        <path d="M64.862 87.04h-11.1c-1.543 0-3.085.683-3.967 2.051L42.1 101.04c-1.623 2.52.406 5.67 3.653 5.67h19.109V87.04z" fill="#005CFF"/>
        <path d="m61.02 89.091-7.695 11.948c-1.624 2.52.405 5.67 3.652 5.67h16.019c3.247 0 5.276-3.15 3.653-5.67l-7.696-11.948c-1.763-2.736-6.17-2.736-7.933 0" fill="#002199"/>
    </g>
</svg>
